<svg width="1669" height="1329" viewBox="0 0 1669 1329" fill="none" xmlns="http://www.w3.org/2000/svg">
<path d="M854.885 582.228C815.801 655.923 776.574 729.531 737.689 803.347C716.657 843.273 698.529 885.201 674.958 923.286C639.157 981.132 579.614 975.166 554.275 910.951C506.603 790.133 461.445 668.176 415.241 546.693C407.892 548.713 400.543 550.734 393.194 552.754C389.072 676.589 384.906 800.423 380.871 924.261C380.191 945.104 380.876 966.027 379.541 986.811C376.198 1038.86 346.575 1061.12 301.199 1058.23C254.791 1055.26 231.757 1027.67 234.166 975.655C242.274 800.505 249.328 625.299 256.805 450.116C258.229 416.757 259.012 383.341 261.417 350.061C264.19 311.68 256.814 267.331 307.625 254.987C361.874 241.807 413.633 263.681 435.761 314.606C488.369 435.674 539.323 557.568 590.716 679.24C598.547 697.78 605.153 716.914 618.076 750.89C654.817 681.498 685.4 625.14 714.715 568.033C756.957 485.748 799.307 403.491 839.657 320.136C870.16 257.122 919.696 271.758 967.013 282.053C1015.62 292.631 1014.37 334.018 1012.69 375.843C1004.53 578.089 997.748 780.4 989.5 982.642C986.723 1050.71 962.262 1078.8 912.846 1075.95C854.61 1072.6 844.59 1030.45 846.291 979.718C850.627 850.424 855.329 721.144 859.858 585.827C858.183 580.607 856.534 581.418 854.885 582.228Z" fill="#6FCAD9"/>
<path d="M1446.64 728.099C1454.41 739.789 1459.8 747.453 1465.19 755.117C1446.12 783.654 1419.58 810.067 1409.41 841.131C1380.22 930.303 1357.65 1021.36 1331.94 1113.59L1228.81 1087.08C1261.83 975.093 1295.25 864.111 1325.75 752.439C1327.8 744.931 1307.28 732.071 1291.28 713.35C1285.01 701.981 1284.73 698.963 1291.95 695.396C1334.15 698.415 1368.85 701.983 1403.35 705.089C1403.15 704.627 1402.13 704.94 1405.08 710.061C1420.1 718.146 1432.18 721.11 1446.64 728.099Z" fill="#70C9D7"/>
<path d="M1546.3 351.117C1567.75 361.206 1589.21 371.295 1607.96 380.11C1588.92 423.428 1572.63 460.487 1552.51 506.256C1538.9 506.256 1513.91 506.256 1481.3 507.736C1473.66 509.216 1474.28 509.604 1472.24 503.862C1457.98 495.559 1445.76 492.999 1433.83 490.593C1434.1 490.747 1434.68 491.023 1431.3 485.301C1410.01 477.08 1392.11 474.582 1374.44 472.195C1374.68 472.306 1375.14 472.528 1372.23 466.378C1351.15 458.041 1333 455.853 1315.03 453.753C1315.23 453.842 1315.57 454.091 1315.57 454.091C1301.88 436.256 1288.19 418.42 1259.32 380.795C1319.22 390.662 1356.83 396.856 1407.06 407.311C1436.65 414.46 1453.64 417.349 1474.95 424.544C1492.74 428.85 1506.21 428.85 1519.68 428.85C1519.73 425.522 1519.78 422.193 1519.83 418.865C1505.28 417.235 1490.73 415.604 1471.92 409.532C1451.2 401.431 1434.75 397.771 1418.3 394.112C1383.93 370.303 1349.57 346.494 1315.2 322.685C1320.19 316.129 1325.19 309.575 1330.18 303.019C1355.61 309.157 1381.05 315.293 1406.48 321.43C1415.7 318.032 1424.92 314.632 1434.14 311.234C1338.35 254.721 1320.46 186.586 1373.28 107.182C1457.87 125.064 1543.6 140.49 1627.13 162.981C1645.14 167.829 1655.25 198.154 1669 216.744C1643.25 226.923 1617.5 237.101 1579.29 242.986C1550.3 235.098 1533.75 231.504 1512.63 223.904C1491.95 215.859 1475.85 211.82 1455.74 204.04C1441.27 196.498 1430.81 192.697 1415.97 185.203C1402.84 181.085 1394.08 180.66 1385.33 180.235C1393.11 187.299 1400.9 194.364 1412.75 205.188C1427.56 212.314 1438.3 215.68 1453.74 223.152C1474.76 231.222 1491.11 235.187 1512.64 242.93C1534.87 249.452 1551.9 252.196 1568.93 254.939C1591.9 263.915 1614.87 272.89 1668.67 293.909C1623.1 315.571 1597.11 327.929 1559.14 335.656C1531.06 326.901 1514.96 322.777 1493.7 314.941C1474.02 311.228 1459.5 311.228 1444.99 311.228C1444.7 314.777 1444.41 318.325 1444.12 321.874C1458.49 325.072 1472.86 328.271 1492.29 335.184C1513.67 342.972 1529.98 347.045 1546.3 351.117Z" fill="#7ED3E0"/>
<path d="M1212.5 667.194C1212.56 670.055 1212.63 672.917 1212.66 680.082C1221.98 639.94 1231.32 595.495 1246.73 548.278C1252.8 545.505 1252.28 545.195 1254.37 550.484C1268.68 558.166 1280.9 560.56 1292.86 562.818C1292.61 562.681 1292.06 562.47 1296.1 567.817C1324.36 575.452 1348.57 577.741 1372.53 579.928C1372.27 579.828 1371.76 579.615 1375.45 585.248C1403.6 592.985 1428.06 595.09 1452.25 597.082C1451.98 596.97 1451.52 596.635 1451.52 596.635C1474.69 610.488 1497.87 624.341 1528.54 642.678C1484.02 675.866 1527.23 779.219 1398.14 737.144C1387.24 726.16 1382.33 718.616 1373.47 701.51C1356.91 688.852 1344.29 685.757 1331.66 682.663C1331.66 682.663 1332.72 682.428 1329.02 677.705C1287.71 671.052 1250.11 669.123 1212.5 667.194Z" fill="#7ED3E0"/>
<path d="M1461.09 497.299C1467.31 502.616 1474.37 507.647 1480.27 513.665C1496.62 530.34 1512.48 547.427 1528.54 564.352C1504.73 570.448 1480.92 576.545 1449.74 583.471C1442.38 584.3 1442.81 584.64 1439.01 579.575C1412.65 572.012 1390.1 569.514 1367.55 567.016C1367.55 567.016 1368.03 567.232 1364.76 561.628C1338.59 553.885 1315.69 551.744 1292.78 549.604C1292.78 549.604 1293.3 549.819 1291.91 544.36C1278.83 536.621 1267.15 534.341 1255.46 532.061C1255.46 532.061 1255.95 532.376 1256.17 532.558C1244.74 493.043 1232.84 453.237 1305.81 446.756C1312.28 445.398 1311.96 445.163 1314.64 450.696C1334.38 458.424 1351.42 460.618 1368.47 462.812C1368.47 462.812 1368.03 462.601 1370.59 468.181C1390.31 475.934 1407.47 478.106 1424.62 480.279C1424.62 480.279 1424.08 480.019 1425.75 485.251C1438.93 492.932 1450.45 495.38 1461.97 497.829C1461.97 497.829 1461.39 497.463 1461.09 497.299Z" fill="#7ED3E0"/>
</svg>
