<svg width="450" height="228" viewBox="0 0 450 228" fill="none" xmlns="http://www.w3.org/2000/svg">
<path d="M158.414 216.352C107.871 198.988 68.2265 168.431 40.125 123.191C44.7903 127.516 49.5965 131.7 54.0987 136.188C89.0107 170.994 131.066 192.06 179.226 201.427C207.618 206.95 236.056 207.374 264.484 201.816C269.784 200.78 273.217 202.864 275.734 207.065C278.522 211.717 278.692 219.361 275.813 222.212C274.406 223.606 272.153 224.563 270.15 224.878C232.383 230.814 195.22 228.409 158.414 216.352Z" fill="#6EC8D7"/>
<path d="M76.6825 81.8985C71.3731 86.077 66.055 90.2445 60.7579 94.4384C57.8927 96.7068 55.197 99.2167 52.1863 101.267C47.6136 104.382 43.0826 102.021 43.0102 96.4647C42.8739 86.0103 42.9709 75.5529 42.9709 65.0967C42.3287 65.0088 41.6866 64.9209 41.0444 64.833C36.9923 73.8397 32.9368 82.8449 28.8915 91.8546C28.2106 93.371 27.6352 94.9373 26.9043 96.4282C25.0736 100.162 22.0603 100.85 18.5578 99.1723C14.9755 97.4569 13.9834 94.6778 15.7391 90.9162C21.6505 78.2508 27.4802 65.5473 33.3427 52.859C34.4591 50.4429 35.5264 48.0018 36.718 45.6232C38.0922 42.8799 38.8431 39.3689 43.2342 40.0965C47.9224 40.8734 51.359 44.1572 51.5774 48.6293C52.0965 59.2614 52.46 69.9011 52.8648 80.5386C52.9265 82.1595 52.8734 83.7847 52.8734 86.7091C57.8679 82.7726 61.9831 79.5994 66.0206 76.3301C71.8382 71.6194 77.6635 66.9144 83.3636 62.0637C87.6728 58.3967 91.1512 61.0744 94.5847 63.3603C98.1121 65.7088 96.768 68.7231 95.3762 71.7556C88.6457 86.4193 82.0218 101.132 75.2842 115.792C73.0166 120.727 70.2362 122.011 66.4125 120.207C61.9062 118.081 62.3819 114.647 64.0428 110.958C68.2761 101.555 72.5379 92.1655 76.9676 82.3245C76.9921 81.8852 76.8373 81.8918 76.6825 81.8985Z" fill="#6FCAD9"/>
<path d="M76.6825 81.8985C71.3731 86.077 66.055 90.2445 60.7579 94.4384C57.8927 96.7068 55.197 99.2167 52.1863 101.267C47.6136 104.382 43.0826 102.021 43.0102 96.4647C42.8739 86.0103 42.9709 75.5529 42.9709 65.0967C42.3287 65.0088 41.6866 64.9209 41.0444 64.833C36.9923 73.8397 32.9368 82.8449 28.8915 91.8546C28.2106 93.371 27.6352 94.9373 26.9043 96.4282C25.0736 100.162 22.0603 100.85 18.5578 99.1723C14.9755 97.4569 13.9834 94.6778 15.7391 90.9162C21.6505 78.2508 27.4802 65.5473 33.3427 52.859C34.4591 50.4429 35.5264 48.0018 36.718 45.6232C38.0922 42.8799 38.8431 39.3689 43.2342 40.0965C47.9224 40.8734 51.359 44.1572 51.5774 48.6293C52.0965 59.2614 52.46 69.9011 52.8648 80.5386C52.9265 82.1595 52.8734 83.7847 52.8734 86.7091C57.8679 82.7726 61.9831 79.5994 66.0206 76.3301C71.8382 71.6194 77.6635 66.9144 83.3636 62.0637C87.6728 58.3967 91.1512 61.0744 94.5847 63.3603C98.1121 65.7088 96.768 68.7231 95.3762 71.7556C88.6457 86.4193 82.0218 101.132 75.2842 115.792C73.0166 120.727 70.2362 122.011 66.4125 120.207C61.9062 118.081 62.3819 114.647 64.0428 110.958C68.2761 101.555 72.5379 92.1655 76.9676 82.3245C76.9921 81.8852 76.8373 81.8918 76.6825 81.8985Z" fill="#6FCAD9"/>
<path d="M390.719 75.044C395.288 84.8266 399.834 94.6193 404.438 104.385C405.714 107.093 406.552 109.639 404.014 112.152C400.463 115.668 395.783 114.618 393.267 109.54C386.986 96.8655 380.774 84.1563 374.532 71.462C373.651 69.6699 372.815 67.8518 371.853 66.1039C370.465 63.5817 368.682 60.9836 371.688 58.5454C374.552 56.2228 377.567 54.1362 381.615 56.3752C391.808 62.0128 402.06 67.5444 412.303 73.09C414.865 74.4773 417.486 75.7571 420.08 77.0863C420.495 76.7438 420.911 76.4012 421.326 76.0587C417.256 67.9903 413.194 59.9182 409.11 51.8569C408.359 50.3737 407.481 48.9543 406.73 47.4711C404.704 43.4708 406.353 40.538 409.911 38.8295C413.473 37.1194 416.358 38.4563 418.109 42.0588C424.073 54.3331 430.046 66.6035 436.018 78.8739C436.966 80.8197 437.892 82.777 438.893 84.6949C440.446 87.6695 442.52 90.736 439.296 93.7459C436.069 96.7588 432.61 97.1821 428.469 94.7769C418.111 88.7601 407.54 83.1078 397.032 77.3513C395.293 76.3987 393.437 75.6584 391.216 74.6731C390.664 74.4917 390.531 74.4573 390.398 74.4228C390.505 74.6299 390.612 74.8369 390.719 75.044Z" fill="#70C9D7"/>
<path d="M231.783 79.9862C226.448 76.1043 221.249 72.0147 215.748 68.3827C203.41 60.2365 190.388 53.7205 175.073 54.1103C164.609 54.3766 154.911 57.7972 145.133 62.0487C144.77 61.9898 144.802 62.016 144.802 62.016C149.522 57.6794 154.243 53.3427 158.908 49.0574C140.617 33.5105 107.621 24.4346 84.0992 43.8953C83.7811 44.0015 83.8073 44.0266 83.8073 44.0266C85.6343 35.5945 92.1637 31.4043 99.1321 28.2714C113.051 22.0135 127.004 24.3199 140.16 30.5785C147.589 34.1128 154.301 39.2408 161.082 44.0116C163.907 45.999 166.346 47.5029 170.07 47.0813C187.692 45.0865 203.341 50.193 216.915 61.3667C220.298 64.151 222.551 64.0404 225.804 61.4866C238.931 51.181 254.379 47.4621 270.628 47.1308C276.701 47.007 281.552 45.4867 285.934 41.504C287.767 39.8385 289.979 38.59 292.671 37.1894C297.581 38.761 299.158 36.499 299.678 32.7392C304.423 30.782 309.168 28.8247 314.544 27.1489C320.025 27.9532 324.927 28.2114 329.702 29.1312C331.567 29.4906 333.146 31.3368 334.856 32.5059C317.719 30.8044 302.832 36.9983 289.071 46.2197C281.039 51.6018 272.279 53.7405 262.968 54.9834C249.661 56.7599 237.238 61.1686 225.457 68.6301C227.643 72.2946 229.731 75.7934 231.796 79.645C231.774 79.9978 231.783 79.9862 231.783 79.9862Z" fill="#6EC8D7"/>
<path d="M125.775 106.958C124.694 108.458 123.238 109.816 122.603 111.486C120.779 116.28 119.286 121.2 117.629 126.174C124.941 126.942 129.332 124.263 131.567 117.366C134.847 107.24 137.734 96.9884 140.917 86.8301C141.882 83.748 142.423 80.1283 146.897 79.8871C151.373 79.6458 154.459 82.7777 153.312 87.0836C150.272 98.4917 147.324 109.945 143.676 121.165C139.729 133.3 128.746 140.19 117.211 138.636C101.776 136.557 93.1311 128.217 92.1286 114.216C91.9776 112.107 92.3205 109.865 92.9031 107.818C96.0908 96.6185 99.3524 85.4384 102.742 74.2981C104.206 69.4859 107.278 67.7079 111.373 69.2248C115.564 70.778 115.803 74.0152 114.65 77.8402C111.434 88.5016 108.182 99.1564 105.255 109.898C103.419 116.632 105.875 121.616 112.394 124.532C114.518 118.441 116.66 112.409 118.653 106.328C118.786 105.923 117.784 105.146 117.035 104.063C116.757 103.418 116.754 103.251 117.136 103.08C119.283 103.392 121.045 103.708 122.798 103.997C122.789 103.971 122.736 103.985 122.868 104.276C123.606 104.772 124.213 104.977 124.926 105.41C125.28 106.079 125.527 106.518 125.775 106.958Z" fill="#70C9D7"/>
<path d="M237.88 116.154C235.409 118.127 235.478 119.695 237.524 121.682C243.724 127.705 249.778 133.879 255.892 139.991C256.245 140.343 256.634 140.659 256.995 141.004C259.612 143.505 262.273 146.071 259.306 149.932C257.032 152.891 251.828 153.09 248.54 149.968C243.719 145.393 239.198 140.495 234.665 135.626C231.213 131.918 227.941 128.042 223.593 123.111C223.593 131.491 223.811 138.395 223.467 145.272C223.356 147.497 222.365 150.398 220.741 151.685C216.809 154.803 211.173 151.884 211.091 146.715C210.815 129.241 210.808 111.761 210.733 94.2837C210.719 90.8792 212.527 89.1054 215.928 88.8537C219.849 88.5635 222.039 90.6168 222.38 94.2335C222.801 98.6967 222.706 103.21 222.797 107.702C222.842 109.971 222.804 112.241 222.804 114.51C223.212 114.664 223.619 114.819 224.026 114.973C228.613 109.7 233.211 104.437 237.782 99.1499C240.391 96.1321 242.843 92.9697 245.571 90.0656C248.42 87.0332 251.982 86.8877 254.927 89.5374C258.039 92.3355 256.911 95.3538 254.239 98.1946C248.774 104.005 243.491 109.986 237.88 116.154Z" fill="#70C9D9"/>
<path d="M176.256 122.546C173.358 121.17 170.759 120.036 168.261 118.712C160.459 114.576 156.685 107.559 158.072 99.953C159.63 91.4096 166.347 84.9939 175.088 84.1143C183.793 83.2383 191.568 85.9218 198.333 91.329C202.355 94.5434 203.03 99.5233 200.175 102.217C197.269 104.958 193.688 104.107 189.957 100.031C186.007 95.7152 180.838 94.3124 175.475 95.9934C173.249 96.691 170.827 99.4588 170.225 101.742C169.787 103.403 171.716 106.431 173.434 107.745C176.01 109.714 179.409 110.565 182.308 112.164C186.654 114.56 191.431 116.573 195.031 119.843C204.412 128.363 201.983 142.477 190.613 148.105C180.058 153.33 162.381 149.9 154.571 141.11C151.291 137.42 151.052 134.183 154.089 131.481C157.552 128.399 160.633 129.263 163.554 132.555C168.084 137.661 173.964 139.449 180.647 139.091C184.305 138.895 187.257 137.492 188.354 133.864C189.548 129.915 186.8 127.541 183.948 125.766C181.724 124.382 179.065 123.696 176.256 122.546Z" fill="#6FCAD9"/>
<path d="M274.913 149.346C268.168 150.09 265.934 147.562 267.323 141.384C271.151 124.371 275.009 107.365 278.721 90.3275C279.594 86.32 280.837 83.1482 285.528 82.3504C290.195 81.5565 292.553 84.0548 294.714 87.5489C303.983 102.54 313.281 117.515 322.723 132.397C324.824 135.71 324.618 138.404 321.61 140.635C318.613 142.859 315.649 142.16 313.099 139.595C312.52 139.013 312.064 138.295 311.615 137.598C306.975 130.385 306.998 130.469 298.462 132.374C293.93 133.385 289.34 134.225 284.732 134.777C281.935 135.113 280.846 136.261 280.287 139.02C279.528 142.762 279.881 147.281 274.913 149.346ZM284.278 118.927C284.116 120.478 283.954 122.029 283.734 124.136C290.127 122.893 295.728 121.803 301.966 120.589C297.31 112.793 293.064 105.683 288.228 97.5847C286.821 105.36 285.668 111.734 284.278 118.927Z" fill="#6EC9D8"/>
<path d="M330.837 119.117C331.85 104.91 332.989 91.1732 333.734 77.4146C333.972 73.0192 335.351 70.225 339.698 68.8398C343.931 67.4908 346.42 69.2178 349.043 72.3909C360.372 86.0972 371.883 99.6556 383.465 113.15C385.74 115.8 386.762 118.226 384.199 120.996C381.723 123.673 378.621 123.979 375.629 122.018C374.001 120.951 372.373 119.463 371.482 117.776C369.244 113.543 366.27 113.633 362.361 115.131C356.936 117.211 351.407 119.086 345.803 120.61C343.109 121.342 342.437 122.666 342.427 125.153C342.417 127.461 342.231 129.832 341.665 132.059C340.777 135.558 338.367 137.429 334.646 136.921C330.982 136.422 329.67 133.955 329.915 130.501C330.175 126.857 330.509 123.218 330.837 119.117ZM357.764 100.576C353.506 95.0486 349.248 89.5212 344.99 83.9938C344.623 84.1716 344.255 84.3494 343.888 84.5271C343.512 92.8518 343.137 101.176 342.72 110.425C348.956 108.365 354.351 106.583 360.168 104.661C359.286 103.106 358.735 102.136 357.764 100.576Z" fill="#70C9D7"/>
<path d="M313.234 207.223C304.724 210.252 296.586 213.15 288.412 215.945C286.724 216.522 284.906 216.718 282.845 217.154C281.911 212.876 281.048 208.922 280.074 204.458C286.868 202.88 294.041 202.019 300.595 199.528C315.18 193.985 329.482 187.687 343.844 181.568C348.585 179.548 353.126 177.065 357.817 174.924C361.194 173.383 364.537 173.254 366.27 177.226C367.893 180.947 366.167 183.899 362.729 185.408C346.951 192.336 332.861 203.109 315.416 206.252C314.78 206.367 314.199 206.781 313.234 207.223Z" fill="#70C9D9"/>
<path d="M1.24056 52.8557C-0.916149 41.4968 -0.419048 30.6662 3.98696 20.1981C10.2107 5.41111 26.2625 -3.1006 40.5104 1.06932C48.3512 3.36406 54.0857 8.36879 57.2372 16.2637C55.5358 14.8996 53.9123 13.4222 52.1207 12.1892C36.7663 1.62138 20.2647 6.25331 10.2199 23.8251C5.58773 31.9282 2.92031 40.553 2.55831 49.9026C2.51567 51.0029 1.81758 52.0778 1.24056 52.8557Z" fill="#70C9D7"/>
<path d="M392.767 14.9891C394.043 7.78298 406.713 0.109271 413.836 0.00453518C427.847 -0.20149 437.804 6.62203 444.042 18.4239C449.768 29.256 451.014 41.0917 447.302 53.2748C446.84 49.6999 446.461 46.1121 445.901 42.5526C444.258 32.1007 440.06 22.8096 432.73 15.1227C422.542 4.43752 407.287 3.69591 395.853 13.1446C395.089 13.7763 394.263 14.3344 393.121 14.9614C392.775 14.9962 392.767 14.9891 392.767 14.9891Z" fill="#70C9D7"/>
<path d="M406.066 137.303C395.208 151.524 383.885 164.791 369.427 174.809C366.804 172.863 364.352 171.045 361.151 168.671C382.037 153.47 401.573 137.065 417.755 117.027C418.158 117.325 418.561 117.624 418.964 117.922C414.734 124.285 410.504 130.648 406.066 137.303Z" fill="#70C9D9"/>
<path d="M333.603 179.14C333.732 180.471 333.862 181.803 333.992 183.134C332.88 183.134 331.768 183.135 330.303 182.647C329.623 181.969 329.298 181.779 328.972 181.59C329.128 182.157 329.284 182.725 329.439 183.293C328.949 184.299 328.654 185.528 327.878 186.208C327.545 186.5 326.213 185.653 325.014 184.896C324.462 184.24 324.23 184.01 323.997 183.483C323.675 182.713 323.352 182.239 323.034 181.438C322.691 180.341 322.342 179.572 321.941 178.52C321.603 177.749 321.318 177.261 320.972 176.493C320.627 175.726 320.342 175.239 319.981 174.484C319.594 174.012 319.284 173.809 318.974 173.606C319.141 174.157 319.308 174.709 319.515 175.547C319.853 176.32 320.152 176.806 320.487 177.578C320.834 178.34 321.146 178.814 321.48 179.607C321.889 180.652 322.274 181.379 322.7 182.395C323.06 183.151 323.377 183.618 323.785 184.325C324.152 184.731 324.429 184.897 324.706 185.062C324.486 187.824 324.529 190.946 320.064 188.116C319.792 187.997 319.782 188.034 319.804 187.712C319.465 186.919 319.104 186.447 318.767 185.981C318.791 185.987 318.778 186.034 318.823 185.707C318.493 184.913 318.117 184.445 317.766 183.983C317.79 183.988 317.776 184.035 317.851 183.692C317.534 182.555 317.142 181.76 316.776 180.972C316.802 180.979 316.794 181.032 316.739 180.749C316.369 180.305 316.053 180.144 315.763 179.985C315.788 179.987 315.779 180.036 315.847 179.707C315.524 178.909 315.133 178.442 314.768 177.98C314.793 177.986 314.779 178.037 314.854 177.691C314.535 176.552 314.142 175.76 313.774 174.975C313.799 174.983 313.787 175.034 313.783 174.724C313.435 173.931 313.092 173.448 312.77 172.966C312.791 172.967 312.807 173.006 312.807 173.006C313.185 172.038 313.301 170.551 313.991 170.204C315.882 169.253 318.015 168.781 320.725 167.9C321.11 168.336 322.131 169.494 323.178 170.68C325.032 169.13 320.095 164.767 326.155 165.474C326.898 166.005 327.207 166.204 327.516 166.403C327.345 165.87 327.173 165.337 327.002 164.803C328.045 163.85 329.089 162.897 330.597 162.261C333.756 168.061 336.45 173.544 339.143 179.026C338.56 179.858 337.977 180.689 337.394 181.52C336.472 180.726 335.549 179.931 334.328 178.618C333.672 177.335 333.315 176.571 332.858 175.586C332.601 175.071 332.375 174.846 332.066 174.371C331.668 173.322 331.284 172.592 330.812 171.637C330.573 171.113 330.351 170.882 330.005 170.438C329.626 169.974 329.3 169.79 328.974 169.606C329.171 170.143 329.368 170.679 329.672 171.431C329.944 171.939 330.18 172.153 330.493 172.612C330.874 173.676 331.249 174.417 331.714 175.383C331.946 175.913 332.164 176.149 332.468 176.634C332.854 177.682 333.229 178.411 333.603 179.14ZM326.973 176.15C326.647 175.956 326.322 175.762 325.996 175.568C326.164 176.125 326.331 176.682 326.616 177.807C326.943 178.01 327.271 178.212 327.598 178.414C327.451 177.837 327.304 177.259 326.973 176.15Z" fill="#7ED3E0"/>
<path d="M335.143 32.647C333.146 31.3368 331.567 29.4906 329.701 29.1312C324.927 28.2114 320.025 27.9532 314.938 27.138C328.47 22.7978 341.55 23.4846 353.153 32.8735C361.591 39.7014 363.251 49.0022 361.847 59.5633C357.604 45.9395 349.597 36.2519 335.143 32.647Z" fill="#73C9D8"/>
<path d="M342.981 158.818C343.426 157.419 343.872 156.019 344.317 154.619C345.213 155.342 346.108 156.065 347.303 157.303C347.888 158.306 348.173 158.793 348.507 159.618C349.085 160.866 349.612 161.776 350.139 162.686C350.466 162.446 350.792 162.206 351.118 161.966C350.478 160.862 349.837 159.757 349.107 158.385C348.726 157.635 348.434 157.152 348.142 156.669C348.276 155.237 348.41 153.805 348.544 152.372C349.052 152.268 349.559 152.163 350.067 152.059C352.917 157.739 356.001 163.318 358.505 169.146C359.548 171.574 357.919 172.469 355.21 170.755C354.606 169.763 354.332 169.258 353.991 168.477C353.642 167.712 353.361 167.224 352.997 166.468C352.605 165.996 352.294 165.792 351.983 165.589C352.146 166.147 352.308 166.705 352.514 167.549C352.861 168.315 353.165 168.795 353.515 169.559C353.898 170.288 354.234 170.733 354.571 171.178C353.522 175.724 349.588 175.728 345.847 175.977C344.94 174.953 344.343 174.475 343.763 173.995C343.78 173.993 343.766 174.025 343.848 173.682C343.536 172.554 343.143 171.768 342.768 170.987C342.786 170.991 342.774 171.026 342.776 170.717C342.436 169.932 342.092 169.457 341.768 168.986C341.787 168.989 341.776 169.027 341.776 168.718C341.433 167.932 341.091 167.455 340.77 166.982C340.791 166.985 340.785 167.027 340.728 166.751C340.362 166.313 340.053 166.151 339.764 165.989C339.784 165.99 339.775 166.029 339.834 165.684C339.512 164.554 339.13 163.769 338.767 162.987C338.786 162.99 338.777 163.026 338.732 162.745C338.373 162.309 338.06 162.155 337.762 161.998C337.778 161.994 337.765 162.024 337.839 161.635C337.75 160.474 337.586 159.703 337.423 158.931C338.889 156.991 340.387 156.121 342.29 159.3C342.877 160.289 343.164 160.774 343.518 161.536C343.895 162.279 344.205 162.746 344.565 163.497C344.939 164.24 345.262 164.7 345.581 165.488C345.957 166.561 346.337 167.307 346.741 168.345C347.079 169.109 347.392 169.581 347.727 170.324C348.009 170.829 348.267 171.064 348.526 171.299C348.34 170.811 348.155 170.323 347.951 169.54C347.591 168.792 347.249 168.339 346.94 167.552C346.605 166.448 346.238 165.677 345.841 164.616C345.512 163.845 345.212 163.365 344.888 162.59C344.564 161.809 344.263 161.323 343.924 160.547C343.584 159.778 343.283 159.298 342.981 158.818Z" fill="#7ED3E0"/>
<path d="M133.441 85.4328C134.525 85.9792 135.608 86.5256 136.555 87.0031C135.594 89.3492 134.771 91.3564 133.755 93.8353C133.068 93.8353 131.806 93.8353 130.159 93.9154C129.774 93.9956 129.805 94.0166 129.702 93.7056C128.982 93.2559 128.365 93.1172 127.762 92.9869C127.776 92.9953 127.805 93.0102 127.635 92.7003C126.56 92.2551 125.656 92.1198 124.764 91.9905C124.775 91.9965 124.799 92.0085 124.652 91.6754C123.588 91.2239 122.671 91.1054 121.764 90.9917C121.773 90.9965 121.791 91.0099 121.791 91.0099C121.099 90.044 120.408 89.078 118.95 87.0402C121.975 87.5746 123.874 87.91 126.41 88.4763C127.905 88.8635 128.762 89.02 129.839 89.4096C130.737 89.6429 131.417 89.6429 132.097 89.6429C132.1 89.4626 132.102 89.2823 132.105 89.1021C131.37 89.0138 130.636 88.9255 129.686 88.5966C128.64 88.1578 127.809 87.9596 126.978 87.7614C125.243 86.4719 123.508 85.1824 121.772 83.8929C122.024 83.5378 122.276 83.1828 122.529 82.8278C123.813 83.1602 125.097 83.4925 126.381 83.8249C126.847 83.6408 127.312 83.4567 127.778 83.2726C122.941 80.2119 122.038 76.5216 124.705 72.221C128.977 73.1895 133.305 74.025 137.523 75.2431C138.432 75.5057 138.943 77.1481 139.637 78.155C138.337 78.7063 137.037 79.2575 135.108 79.5763C133.643 79.1491 132.808 78.9544 131.742 78.5428C130.697 78.1071 129.884 77.8883 128.869 77.4669C128.138 77.0584 127.61 76.8526 126.86 76.4467C126.197 76.2237 125.755 76.2007 125.313 76.1776C125.706 76.5602 126.1 76.9428 126.698 77.5291C127.446 77.915 127.988 78.0974 128.768 78.5021C129.829 78.9391 130.655 79.1539 131.742 79.5733C132.864 79.9265 133.724 80.0751 134.585 80.2237C135.744 80.7098 136.904 81.1959 139.621 82.3344C137.32 83.5076 136.007 84.1769 134.09 84.5954C132.672 84.1212 131.859 83.8978 130.785 83.4734C129.792 83.2724 129.059 83.2724 128.326 83.2724C128.311 83.4646 128.297 83.6567 128.282 83.8489C129.007 84.0222 129.733 84.1954 130.714 84.5699C131.794 84.9916 132.618 85.2122 133.441 85.4328Z" fill="#7ED3E0"/>
<path d="M422.898 20.7098C429.391 25.4449 432.565 30.7995 432.274 36.8477C423.864 24.1853 412.822 19.6635 398.15 24.9786C403.59 18.252 413.395 16.6324 422.898 20.7098Z" fill="#73C9D8"/>
<path d="M46.3556 23.9725C33.4114 20.7504 24.1747 25.936 16.6008 35.736C17.921 28.4703 21.4706 22.9908 28.1698 20.2077C36.5928 16.7084 44.1868 18.7625 50.8491 24.9942C49.484 24.6754 48.1189 24.3566 46.3556 23.9725Z" fill="#73C9D8"/>
<path d="M116.751 103.084C116.754 103.251 116.757 103.418 116.759 103.835C117.227 101.497 117.696 98.9089 118.47 96.1592C118.775 95.9977 118.749 95.9796 118.854 96.2876C119.572 96.735 120.186 96.8745 120.787 97.0059C120.774 96.998 120.747 96.9857 120.95 97.297C122.369 97.7417 123.585 97.875 124.788 98.0024C124.775 97.9965 124.75 97.9841 124.935 98.3122C126.349 98.7627 127.578 98.8853 128.793 99.0013C128.779 98.9948 128.756 98.9753 128.756 98.9753C129.92 99.782 131.084 100.589 132.624 101.657C130.388 103.589 132.559 109.608 126.075 107.158C125.528 106.518 125.28 106.079 124.836 105.083C124.004 104.346 123.37 104.165 122.736 103.985C122.736 103.985 122.789 103.971 122.603 103.696C120.528 103.309 118.64 103.197 116.751 103.084Z" fill="#7ED3E0"/>
<path d="M319.774 187.992C319.128 189.168 318.5 190.35 317.872 191.531C316.869 190.66 315.511 189.978 314.926 188.883C312.685 184.69 310.626 180.393 308.662 176.062C308.273 175.201 308.274 173.301 308.668 173.119C309.631 172.673 310.929 172.953 312.449 172.973C312.807 173.006 312.791 172.967 312.685 173.3C312.981 174.1 313.384 174.567 313.787 175.035C313.787 175.035 313.799 174.983 313.675 175.318C313.961 176.448 314.37 177.242 314.779 178.037C314.779 178.037 314.793 177.986 314.757 178.296C315.074 179.083 315.426 179.559 315.779 180.036C315.779 180.036 315.788 179.987 315.809 180.275C316.151 180.72 316.472 180.876 316.794 181.032C316.794 181.032 316.802 180.979 316.659 181.318C316.936 182.45 317.356 183.243 317.776 184.035C317.776 184.035 317.79 183.988 317.726 184.309C318.034 185.098 318.406 185.566 318.778 186.034C318.778 186.034 318.791 185.987 318.706 186.311C319.008 187.102 319.395 187.568 319.782 188.034C319.782 188.034 319.792 187.997 319.774 187.992Z" fill="#6FCAD9"/>
<path d="M332.459 160.947C333.347 160.533 334.235 160.12 335.598 160C336.636 160.87 337.201 161.447 337.765 162.024C337.765 162.024 337.778 161.994 337.803 162.281C338.145 162.72 338.461 162.873 338.777 163.026C338.777 163.026 338.786 162.99 338.676 163.328C338.969 164.454 339.372 165.241 339.775 166.029C339.775 166.029 339.784 165.99 339.821 166.266C340.167 166.703 340.476 166.865 340.785 167.027C340.785 167.027 340.791 166.985 340.717 167.31C341.02 168.098 341.398 168.563 341.776 169.027C341.776 169.027 341.787 168.989 341.705 169.313C342.006 170.1 342.39 170.563 342.773 171.026C342.773 171.026 342.786 170.991 342.68 171.33C342.972 172.455 343.369 173.24 343.766 174.025C343.766 174.025 343.779 173.993 343.734 174.275C343.923 175.046 344.156 175.533 344.39 176.021C343.429 177.047 342.468 178.073 341.088 178.69C337.932 172.502 335.195 166.725 332.459 160.947Z" fill="#6FCAD9"/>
<path d="M129.757 93.9862C130.091 94.2911 130.469 94.5796 130.785 94.9247C131.66 95.8809 132.509 96.8608 133.369 97.8313C132.094 98.1809 130.819 98.5305 129.15 98.9277C128.756 98.9752 128.779 98.9947 128.575 98.7043C127.165 98.2706 125.957 98.1273 124.75 97.9841C124.75 97.9841 124.775 97.9965 124.6 97.6752C123.199 97.2311 121.973 97.1084 120.747 96.9856C120.747 96.9856 120.774 96.9979 120.7 96.6849C120 96.2411 119.374 96.1104 118.749 95.9796C118.749 95.9796 118.775 95.9977 118.787 96.0081C118.175 93.7421 117.537 91.4595 121.444 91.0878C121.79 91.0099 121.773 90.9964 121.917 91.3138C122.974 91.7569 123.886 91.8827 124.799 92.0086C124.799 92.0086 124.775 91.9965 124.913 92.3164C125.968 92.761 126.887 92.8856 127.805 93.0102C127.805 93.0102 127.776 92.9953 127.866 93.2953C128.572 93.7358 129.188 93.8762 129.805 94.0166C129.805 94.0166 129.774 93.9956 129.757 93.9862Z" fill="#7ED3E0"/>
<path d="M299.332 32.813C299.158 36.499 297.581 38.761 292.991 37.0766C294.768 35.5798 296.877 34.2332 299.332 32.813Z" fill="#73C9D8"/>
<path d="M391.745 15.9768L391.632 16.2152C391.632 16.2152 391.682 16.1323 391.728 16.0654C391.774 15.9985 391.745 15.9768 391.745 15.9768Z" fill="#70C9D7"/>
<path d="M83.7696 43.9878C83.6495 43.985 83.541 43.9959 83.6199 44.0167C83.8073 44.0266 83.7811 44.0015 83.7696 43.9878Z" fill="#6EC8D7"/>
<path d="M392.778 14.9991C392.599 15.2795 392.418 15.557 391.991 15.9056C391.745 15.9768 391.774 15.9985 391.785 16.0128C391.948 15.7181 392.099 15.409 392.508 15.0446C392.767 14.9891 392.775 14.9962 392.778 14.9991Z" fill="#70C9D7"/>
<path d="M144.756 61.9748C144.653 62.0118 144.565 62.0638 144.639 62.0659C144.802 62.016 144.77 61.9898 144.756 61.9748Z" fill="#6EC8D7"/>
<path d="M419.345 115.654C419.276 115.718 419.25 115.492 419.25 115.492C419.25 115.492 419.413 115.589 419.345 115.654Z" fill="#70C9D9"/>
<path d="M231.767 80.0036C231.925 80.1609 232.089 80.3124 232.254 80.4638C232.132 80.4229 232.01 80.3819 231.836 80.1635C231.783 79.9862 231.774 79.9978 231.767 80.0036Z" fill="#6EC8D7"/>
<path d="M76.7163 81.9334C76.8373 81.8919 76.9921 81.8852 76.984 81.9565C76.821 82.0345 76.7501 81.9682 76.7163 81.9334Z" fill="#FCFDFD"/>
<path d="M390.765 75.0011C390.612 74.8369 390.505 74.6299 390.398 74.4229C390.531 74.4573 390.664 74.4918 390.847 74.6975C390.898 74.8688 390.81 74.9582 390.765 75.0011Z" fill="#FCFDFD"/>
<path d="M158.414 216.352C107.871 198.988 68.2265 168.431 40.125 123.191C44.7903 127.516 49.5965 131.7 54.0987 136.188C89.0107 170.994 131.066 192.06 179.226 201.427C207.618 206.95 236.056 207.374 264.484 201.816C269.784 200.78 273.217 202.864 275.734 207.065C278.522 211.717 278.692 219.361 275.813 222.212C274.406 223.606 272.153 224.563 270.15 224.878C232.383 230.814 195.22 228.409 158.414 216.352Z" fill="#6EC8D7"/>
<path d="M76.6825 81.8985C71.3731 86.077 66.055 90.2445 60.7579 94.4384C57.8927 96.7068 55.197 99.2167 52.1863 101.267C47.6136 104.382 43.0826 102.021 43.0102 96.4647C42.8739 86.0103 42.9709 75.5529 42.9709 65.0967C42.3287 65.0088 41.6866 64.9209 41.0444 64.833C36.9923 73.8397 32.9368 82.8449 28.8915 91.8546C28.2106 93.371 27.6352 94.9373 26.9043 96.4282C25.0736 100.162 22.0603 100.85 18.5578 99.1723C14.9755 97.4569 13.9834 94.6778 15.7391 90.9162C21.6505 78.2508 27.4802 65.5473 33.3427 52.859C34.4591 50.4429 35.5264 48.0018 36.718 45.6232C38.0922 42.8799 38.8431 39.3689 43.2342 40.0965C47.9224 40.8734 51.359 44.1572 51.5774 48.6293C52.0965 59.2614 52.46 69.9011 52.8648 80.5386C52.9265 82.1595 52.8734 83.7847 52.8734 86.7091C57.8679 82.7726 61.9831 79.5994 66.0206 76.3301C71.8382 71.6194 77.6635 66.9144 83.3636 62.0637C87.6728 58.3967 91.1512 61.0744 94.5847 63.3603C98.1121 65.7088 96.768 68.7231 95.3762 71.7556C88.6457 86.4193 82.0218 101.132 75.2842 115.792C73.0166 120.727 70.2362 122.011 66.4125 120.207C61.9062 118.081 62.3819 114.647 64.0428 110.958C68.2761 101.555 72.5379 92.1655 76.9676 82.3245C76.9921 81.8852 76.8373 81.8918 76.6825 81.8985Z" fill="#6FCAD9"/>
<path d="M76.6825 81.8985C71.3731 86.077 66.055 90.2445 60.7579 94.4384C57.8927 96.7068 55.197 99.2167 52.1863 101.267C47.6136 104.382 43.0826 102.021 43.0102 96.4647C42.8739 86.0103 42.9709 75.5529 42.9709 65.0967C42.3287 65.0088 41.6866 64.9209 41.0444 64.833C36.9923 73.8397 32.9368 82.8449 28.8915 91.8546C28.2106 93.371 27.6352 94.9373 26.9043 96.4282C25.0736 100.162 22.0603 100.85 18.5578 99.1723C14.9755 97.4569 13.9834 94.6778 15.7391 90.9162C21.6505 78.2508 27.4802 65.5473 33.3427 52.859C34.4591 50.4429 35.5264 48.0018 36.718 45.6232C38.0922 42.8799 38.8431 39.3689 43.2342 40.0965C47.9224 40.8734 51.359 44.1572 51.5774 48.6293C52.0965 59.2614 52.46 69.9011 52.8648 80.5386C52.9265 82.1595 52.8734 83.7847 52.8734 86.7091C57.8679 82.7726 61.9831 79.5994 66.0206 76.3301C71.8382 71.6194 77.6635 66.9144 83.3636 62.0637C87.6728 58.3967 91.1512 61.0744 94.5847 63.3603C98.1121 65.7088 96.768 68.7231 95.3762 71.7556C88.6457 86.4193 82.0218 101.132 75.2842 115.792C73.0166 120.727 70.2362 122.011 66.4125 120.207C61.9062 118.081 62.3819 114.647 64.0428 110.958C68.2761 101.555 72.5379 92.1655 76.9676 82.3245C76.9921 81.8852 76.8373 81.8918 76.6825 81.8985Z" fill="#6FCAD9"/>
<path d="M390.719 75.044C395.288 84.8266 399.834 94.6193 404.438 104.385C405.714 107.093 406.552 109.639 404.014 112.152C400.463 115.668 395.783 114.618 393.267 109.54C386.986 96.8655 380.774 84.1563 374.532 71.462C373.651 69.6699 372.815 67.8518 371.853 66.1039C370.465 63.5817 368.682 60.9836 371.688 58.5454C374.552 56.2228 377.567 54.1362 381.615 56.3752C391.808 62.0128 402.06 67.5444 412.303 73.09C414.865 74.4773 417.486 75.7571 420.08 77.0863C420.495 76.7438 420.911 76.4012 421.326 76.0587C417.256 67.9903 413.194 59.9182 409.11 51.8569C408.359 50.3737 407.481 48.9543 406.73 47.4711C404.704 43.4708 406.353 40.538 409.911 38.8295C413.473 37.1194 416.358 38.4563 418.109 42.0588C424.073 54.3331 430.046 66.6035 436.018 78.8739C436.966 80.8197 437.892 82.777 438.893 84.6949C440.446 87.6695 442.52 90.736 439.296 93.7459C436.069 96.7588 432.61 97.1821 428.469 94.7769C418.111 88.7601 407.54 83.1078 397.032 77.3513C395.293 76.3987 393.437 75.6584 391.216 74.6731C390.664 74.4917 390.531 74.4573 390.398 74.4228C390.505 74.6299 390.612 74.8369 390.719 75.044Z" fill="#70C9D7"/>
<path d="M231.783 79.9862C226.448 76.1043 221.249 72.0147 215.748 68.3827C203.41 60.2365 190.388 53.7205 175.073 54.1103C164.609 54.3766 154.911 57.7972 145.133 62.0487C144.77 61.9898 144.802 62.016 144.802 62.016C149.522 57.6794 154.243 53.3427 158.908 49.0574C140.617 33.5105 107.621 24.4346 84.0992 43.8953C83.7811 44.0015 83.8073 44.0266 83.8073 44.0266C85.6343 35.5945 92.1637 31.4043 99.1321 28.2714C113.051 22.0135 127.004 24.3199 140.16 30.5785C147.589 34.1128 154.301 39.2408 161.082 44.0116C163.907 45.999 166.346 47.5029 170.07 47.0813C187.692 45.0865 203.341 50.193 216.915 61.3667C220.298 64.151 222.551 64.0404 225.804 61.4866C238.931 51.181 254.379 47.4621 270.628 47.1308C276.701 47.007 281.552 45.4867 285.934 41.504C287.767 39.8385 289.979 38.59 292.671 37.1894C297.581 38.761 299.158 36.499 299.678 32.7392C304.423 30.782 309.168 28.8247 314.544 27.1489C320.025 27.9532 324.927 28.2114 329.702 29.1312C331.567 29.4906 333.146 31.3368 334.856 32.5059C317.719 30.8044 302.832 36.9983 289.071 46.2197C281.039 51.6018 272.279 53.7405 262.968 54.9834C249.661 56.7599 237.238 61.1686 225.457 68.6301C227.643 72.2946 229.731 75.7934 231.796 79.645C231.774 79.9978 231.783 79.9862 231.783 79.9862Z" fill="#6EC8D7"/>
<path d="M125.775 106.958C124.694 108.458 123.238 109.816 122.603 111.486C120.779 116.28 119.286 121.2 117.629 126.174C124.941 126.942 129.332 124.263 131.567 117.366C134.847 107.24 137.734 96.9884 140.917 86.8301C141.882 83.748 142.423 80.1283 146.897 79.8871C151.373 79.6458 154.459 82.7777 153.312 87.0836C150.272 98.4917 147.324 109.945 143.676 121.165C139.729 133.3 128.746 140.19 117.211 138.636C101.776 136.557 93.1311 128.217 92.1286 114.216C91.9776 112.107 92.3205 109.865 92.9031 107.818C96.0908 96.6185 99.3524 85.4384 102.742 74.2981C104.206 69.4859 107.278 67.7079 111.373 69.2248C115.564 70.778 115.803 74.0152 114.65 77.8402C111.434 88.5016 108.182 99.1564 105.255 109.898C103.419 116.632 105.875 121.616 112.394 124.532C114.518 118.441 116.66 112.409 118.653 106.328C118.786 105.923 117.784 105.146 117.035 104.063C116.757 103.418 116.754 103.251 117.136 103.08C119.283 103.392 121.045 103.708 122.798 103.997C122.789 103.971 122.736 103.985 122.868 104.276C123.606 104.772 124.213 104.977 124.926 105.41C125.28 106.079 125.527 106.518 125.775 106.958Z" fill="#70C9D7"/>
<path d="M237.88 116.154C235.409 118.127 235.478 119.695 237.524 121.682C243.724 127.705 249.778 133.879 255.892 139.991C256.245 140.343 256.634 140.659 256.995 141.004C259.612 143.505 262.273 146.071 259.306 149.932C257.032 152.891 251.828 153.09 248.54 149.968C243.719 145.393 239.198 140.495 234.665 135.626C231.213 131.918 227.941 128.042 223.593 123.111C223.593 131.491 223.811 138.395 223.467 145.272C223.356 147.497 222.365 150.398 220.741 151.685C216.809 154.803 211.173 151.884 211.091 146.715C210.815 129.241 210.808 111.761 210.733 94.2837C210.719 90.8792 212.527 89.1054 215.928 88.8537C219.849 88.5635 222.039 90.6168 222.38 94.2335C222.801 98.6967 222.706 103.21 222.797 107.702C222.842 109.971 222.804 112.241 222.804 114.51C223.212 114.664 223.619 114.819 224.026 114.973C228.613 109.7 233.211 104.437 237.782 99.1499C240.391 96.1321 242.843 92.9697 245.571 90.0656C248.42 87.0332 251.982 86.8877 254.927 89.5374C258.039 92.3355 256.911 95.3538 254.239 98.1946C248.774 104.005 243.491 109.986 237.88 116.154Z" fill="#70C9D9"/>
<path d="M176.256 122.546C173.358 121.17 170.759 120.036 168.261 118.712C160.459 114.576 156.685 107.559 158.072 99.953C159.63 91.4096 166.347 84.9939 175.088 84.1143C183.793 83.2383 191.568 85.9218 198.333 91.329C202.355 94.5434 203.03 99.5233 200.175 102.217C197.269 104.958 193.688 104.107 189.957 100.031C186.007 95.7152 180.838 94.3124 175.475 95.9934C173.249 96.691 170.827 99.4588 170.225 101.742C169.787 103.403 171.716 106.431 173.434 107.745C176.01 109.714 179.409 110.565 182.308 112.164C186.654 114.56 191.431 116.573 195.031 119.843C204.412 128.363 201.983 142.477 190.613 148.105C180.058 153.33 162.381 149.9 154.571 141.11C151.291 137.42 151.052 134.183 154.089 131.481C157.552 128.399 160.633 129.263 163.554 132.555C168.084 137.661 173.964 139.449 180.647 139.091C184.305 138.895 187.257 137.492 188.354 133.864C189.548 129.915 186.8 127.541 183.948 125.766C181.724 124.382 179.065 123.696 176.256 122.546Z" fill="#6FCAD9"/>
<path d="M274.913 149.346C268.168 150.09 265.934 147.562 267.323 141.384C271.151 124.371 275.009 107.365 278.721 90.3275C279.594 86.32 280.837 83.1482 285.528 82.3504C290.195 81.5565 292.553 84.0548 294.714 87.5489C303.983 102.54 313.281 117.515 322.723 132.397C324.824 135.71 324.618 138.404 321.61 140.635C318.613 142.859 315.649 142.16 313.099 139.595C312.52 139.013 312.064 138.295 311.615 137.598C306.975 130.385 306.998 130.469 298.462 132.374C293.93 133.385 289.34 134.225 284.732 134.777C281.935 135.113 280.846 136.261 280.287 139.02C279.528 142.762 279.881 147.281 274.913 149.346ZM284.278 118.927C284.116 120.478 283.954 122.029 283.734 124.136C290.127 122.893 295.728 121.803 301.966 120.589C297.31 112.793 293.064 105.683 288.228 97.5847C286.821 105.36 285.668 111.734 284.278 118.927Z" fill="#6EC9D8"/>
<path d="M330.837 119.117C331.85 104.91 332.989 91.1732 333.734 77.4146C333.972 73.0192 335.351 70.225 339.698 68.8398C343.931 67.4908 346.42 69.2178 349.043 72.3909C360.372 86.0972 371.883 99.6556 383.465 113.15C385.74 115.8 386.762 118.226 384.199 120.996C381.723 123.673 378.621 123.979 375.629 122.018C374.001 120.951 372.373 119.463 371.482 117.776C369.244 113.543 366.27 113.633 362.361 115.131C356.936 117.211 351.407 119.086 345.803 120.61C343.109 121.342 342.437 122.666 342.427 125.153C342.417 127.461 342.231 129.832 341.665 132.059C340.777 135.558 338.367 137.429 334.646 136.921C330.982 136.422 329.67 133.955 329.915 130.501C330.175 126.857 330.509 123.218 330.837 119.117ZM357.764 100.576C353.506 95.0486 349.248 89.5212 344.99 83.9938C344.623 84.1716 344.255 84.3494 343.888 84.5271C343.512 92.8518 343.137 101.176 342.72 110.425C348.956 108.365 354.351 106.583 360.168 104.661C359.286 103.106 358.735 102.136 357.764 100.576Z" fill="#70C9D7"/>
<path d="M313.234 207.223C304.724 210.252 296.586 213.15 288.412 215.945C286.724 216.522 284.906 216.718 282.845 217.154C281.911 212.876 281.048 208.922 280.074 204.458C286.868 202.88 294.041 202.019 300.595 199.528C315.18 193.985 329.482 187.687 343.844 181.568C348.585 179.548 353.126 177.065 357.817 174.924C361.194 173.383 364.537 173.254 366.27 177.226C367.893 180.947 366.167 183.899 362.729 185.408C346.951 192.336 332.861 203.109 315.416 206.252C314.78 206.367 314.199 206.781 313.234 207.223Z" fill="#70C9D9"/>
<path d="M1.24056 52.8557C-0.916149 41.4968 -0.419048 30.6662 3.98696 20.1981C10.2107 5.41111 26.2625 -3.1006 40.5104 1.06932C48.3512 3.36406 54.0857 8.36879 57.2372 16.2637C55.5358 14.8996 53.9123 13.4222 52.1207 12.1892C36.7663 1.62138 20.2647 6.25331 10.2199 23.8251C5.58773 31.9282 2.92031 40.553 2.55831 49.9026C2.51567 51.0029 1.81758 52.0778 1.24056 52.8557Z" fill="#70C9D7"/>
<path d="M392.767 14.9891C394.043 7.78298 406.713 0.109271 413.836 0.00453518C427.847 -0.20149 437.804 6.62203 444.042 18.4239C449.768 29.256 451.014 41.0917 447.302 53.2748C446.84 49.6999 446.461 46.1121 445.901 42.5526C444.258 32.1007 440.06 22.8096 432.73 15.1227C422.542 4.43752 407.287 3.69591 395.853 13.1446C395.089 13.7763 394.263 14.3344 393.121 14.9614C392.775 14.9962 392.767 14.9891 392.767 14.9891Z" fill="#70C9D7"/>
<path d="M406.066 137.303C395.208 151.524 383.885 164.791 369.427 174.809C366.804 172.863 364.352 171.045 361.151 168.671C382.037 153.47 401.573 137.065 417.755 117.027C418.158 117.325 418.561 117.624 418.964 117.922C414.734 124.285 410.504 130.648 406.066 137.303Z" fill="#70C9D9"/>
<path d="M333.603 179.14C333.732 180.471 333.862 181.803 333.992 183.134C332.88 183.134 331.768 183.135 330.303 182.647C329.623 181.969 329.298 181.779 328.972 181.59C329.128 182.157 329.284 182.725 329.439 183.293C328.949 184.299 328.654 185.528 327.878 186.208C327.545 186.5 326.213 185.653 325.014 184.896C324.462 184.24 324.23 184.01 323.997 183.483C323.675 182.713 323.352 182.239 323.034 181.438C322.691 180.341 322.342 179.572 321.941 178.52C321.603 177.749 321.318 177.261 320.972 176.493C320.627 175.726 320.342 175.239 319.981 174.484C319.594 174.012 319.284 173.809 318.974 173.606C319.141 174.157 319.308 174.709 319.515 175.547C319.853 176.32 320.152 176.806 320.487 177.578C320.834 178.34 321.146 178.814 321.48 179.607C321.889 180.652 322.274 181.379 322.7 182.395C323.06 183.151 323.377 183.618 323.785 184.325C324.152 184.731 324.429 184.897 324.706 185.062C324.486 187.824 324.529 190.946 320.064 188.116C319.792 187.997 319.782 188.034 319.804 187.712C319.465 186.919 319.104 186.447 318.767 185.981C318.791 185.987 318.778 186.034 318.823 185.707C318.493 184.913 318.117 184.445 317.766 183.983C317.79 183.988 317.776 184.035 317.851 183.692C317.534 182.555 317.142 181.76 316.776 180.972C316.802 180.979 316.794 181.032 316.739 180.749C316.369 180.305 316.053 180.144 315.763 179.985C315.788 179.987 315.779 180.036 315.847 179.707C315.524 178.909 315.133 178.442 314.768 177.98C314.793 177.986 314.779 178.037 314.854 177.691C314.535 176.552 314.142 175.76 313.774 174.975C313.799 174.983 313.787 175.034 313.783 174.724C313.435 173.931 313.092 173.448 312.77 172.966C312.791 172.967 312.807 173.006 312.807 173.006C313.185 172.038 313.301 170.551 313.991 170.204C315.882 169.253 318.015 168.781 320.725 167.9C321.11 168.336 322.131 169.494 323.178 170.68C325.032 169.13 320.095 164.767 326.155 165.474C326.898 166.005 327.207 166.204 327.516 166.403C327.345 165.87 327.173 165.337 327.002 164.803C328.045 163.85 329.089 162.897 330.597 162.261C333.756 168.061 336.45 173.544 339.143 179.026C338.56 179.858 337.977 180.689 337.394 181.52C336.472 180.726 335.549 179.931 334.328 178.618C333.672 177.335 333.315 176.571 332.858 175.586C332.601 175.071 332.375 174.846 332.066 174.371C331.668 173.322 331.284 172.592 330.812 171.637C330.573 171.113 330.351 170.882 330.005 170.438C329.626 169.974 329.3 169.79 328.974 169.606C329.171 170.143 329.368 170.679 329.672 171.431C329.944 171.939 330.18 172.153 330.493 172.612C330.874 173.676 331.249 174.417 331.714 175.383C331.946 175.913 332.164 176.149 332.468 176.634C332.854 177.682 333.229 178.411 333.603 179.14ZM326.973 176.15C326.647 175.956 326.322 175.762 325.996 175.568C326.164 176.125 326.331 176.682 326.616 177.807C326.943 178.01 327.271 178.212 327.598 178.414C327.451 177.837 327.304 177.259 326.973 176.15Z" fill="#7ED3E0"/>
<path d="M335.143 32.647C333.146 31.3368 331.567 29.4906 329.701 29.1312C324.927 28.2114 320.025 27.9532 314.938 27.138C328.47 22.7978 341.55 23.4846 353.153 32.8735C361.591 39.7014 363.251 49.0022 361.847 59.5633C357.604 45.9395 349.597 36.2519 335.143 32.647Z" fill="#73C9D8"/>
<path d="M342.981 158.818C343.426 157.419 343.872 156.019 344.317 154.619C345.213 155.342 346.108 156.065 347.303 157.303C347.888 158.306 348.173 158.793 348.507 159.618C349.085 160.866 349.612 161.776 350.139 162.686C350.466 162.446 350.792 162.206 351.118 161.966C350.478 160.862 349.837 159.757 349.107 158.385C348.726 157.635 348.434 157.152 348.142 156.669C348.276 155.237 348.41 153.805 348.544 152.372C349.052 152.268 349.559 152.163 350.067 152.059C352.917 157.739 356.001 163.318 358.505 169.146C359.548 171.574 357.919 172.469 355.21 170.755C354.606 169.763 354.332 169.258 353.991 168.477C353.642 167.712 353.361 167.224 352.997 166.468C352.605 165.996 352.294 165.792 351.983 165.589C352.146 166.147 352.308 166.705 352.514 167.549C352.861 168.315 353.165 168.795 353.515 169.559C353.898 170.288 354.234 170.733 354.571 171.178C353.522 175.724 349.588 175.728 345.847 175.977C344.94 174.953 344.343 174.475 343.763 173.995C343.78 173.993 343.766 174.025 343.848 173.682C343.536 172.554 343.143 171.768 342.768 170.987C342.786 170.991 342.774 171.026 342.776 170.717C342.436 169.932 342.092 169.457 341.768 168.986C341.787 168.989 341.776 169.027 341.776 168.718C341.433 167.932 341.091 167.455 340.77 166.982C340.791 166.985 340.785 167.027 340.728 166.751C340.362 166.313 340.053 166.151 339.764 165.989C339.784 165.99 339.775 166.029 339.834 165.684C339.512 164.554 339.13 163.769 338.767 162.987C338.786 162.99 338.777 163.026 338.732 162.745C338.373 162.309 338.06 162.155 337.762 161.998C337.778 161.994 337.765 162.024 337.839 161.635C337.75 160.474 337.586 159.703 337.423 158.931C338.889 156.991 340.387 156.121 342.29 159.3C342.877 160.289 343.164 160.774 343.518 161.536C343.895 162.279 344.205 162.746 344.565 163.497C344.939 164.24 345.262 164.7 345.581 165.488C345.957 166.561 346.337 167.307 346.741 168.345C347.079 169.109 347.392 169.581 347.727 170.324C348.009 170.829 348.267 171.064 348.526 171.299C348.34 170.811 348.155 170.323 347.951 169.54C347.591 168.792 347.249 168.339 346.94 167.552C346.605 166.448 346.238 165.677 345.841 164.616C345.512 163.845 345.212 163.365 344.888 162.59C344.564 161.809 344.263 161.323 343.924 160.547C343.584 159.778 343.283 159.298 342.981 158.818Z" fill="#7ED3E0"/>
<path d="M133.441 85.4328C134.525 85.9792 135.608 86.5256 136.555 87.0031C135.594 89.3492 134.771 91.3564 133.755 93.8353C133.068 93.8353 131.806 93.8353 130.159 93.9154C129.774 93.9956 129.805 94.0166 129.702 93.7056C128.982 93.2559 128.365 93.1172 127.762 92.9869C127.776 92.9953 127.805 93.0102 127.635 92.7003C126.56 92.2551 125.656 92.1198 124.764 91.9905C124.775 91.9965 124.799 92.0085 124.652 91.6754C123.588 91.2239 122.671 91.1054 121.764 90.9917C121.773 90.9965 121.791 91.0099 121.791 91.0099C121.099 90.044 120.408 89.078 118.95 87.0402C121.975 87.5746 123.874 87.91 126.41 88.4763C127.905 88.8635 128.762 89.02 129.839 89.4096C130.737 89.6429 131.417 89.6429 132.097 89.6429C132.1 89.4626 132.102 89.2823 132.105 89.1021C131.37 89.0138 130.636 88.9255 129.686 88.5966C128.64 88.1578 127.809 87.9596 126.978 87.7614C125.243 86.4719 123.508 85.1824 121.772 83.8929C122.024 83.5378 122.276 83.1828 122.529 82.8278C123.813 83.1602 125.097 83.4925 126.381 83.8249C126.847 83.6408 127.312 83.4567 127.778 83.2726C122.941 80.2119 122.038 76.5216 124.705 72.221C128.977 73.1895 133.305 74.025 137.523 75.2431C138.432 75.5057 138.943 77.1481 139.637 78.155C138.337 78.7063 137.037 79.2575 135.108 79.5763C133.643 79.1491 132.808 78.9544 131.742 78.5428C130.697 78.1071 129.884 77.8883 128.869 77.4669C128.138 77.0584 127.61 76.8526 126.86 76.4467C126.197 76.2237 125.755 76.2007 125.313 76.1776C125.706 76.5602 126.1 76.9428 126.698 77.5291C127.446 77.915 127.988 78.0974 128.768 78.5021C129.829 78.9391 130.655 79.1539 131.742 79.5733C132.864 79.9265 133.724 80.0751 134.585 80.2237C135.744 80.7098 136.904 81.1959 139.621 82.3344C137.32 83.5076 136.007 84.1769 134.09 84.5954C132.672 84.1212 131.859 83.8978 130.785 83.4734C129.792 83.2724 129.059 83.2724 128.326 83.2724C128.311 83.4646 128.297 83.6567 128.282 83.8489C129.007 84.0222 129.733 84.1954 130.714 84.5699C131.794 84.9916 132.618 85.2122 133.441 85.4328Z" fill="#7ED3E0"/>
<path d="M422.898 20.7098C429.391 25.4449 432.565 30.7995 432.274 36.8477C423.864 24.1853 412.822 19.6635 398.15 24.9786C403.59 18.252 413.395 16.6324 422.898 20.7098Z" fill="#73C9D8"/>
<path d="M46.3556 23.9725C33.4114 20.7504 24.1747 25.936 16.6008 35.736C17.921 28.4703 21.4706 22.9908 28.1698 20.2077C36.5928 16.7084 44.1868 18.7625 50.8491 24.9942C49.484 24.6754 48.1189 24.3566 46.3556 23.9725Z" fill="#73C9D8"/>
<path d="M116.751 103.084C116.754 103.251 116.757 103.418 116.759 103.835C117.227 101.497 117.696 98.9089 118.47 96.1592C118.775 95.9977 118.749 95.9796 118.854 96.2876C119.572 96.735 120.186 96.8745 120.787 97.0059C120.774 96.998 120.747 96.9857 120.95 97.297C122.369 97.7417 123.585 97.875 124.788 98.0024C124.775 97.9965 124.75 97.9841 124.935 98.3122C126.349 98.7627 127.578 98.8853 128.793 99.0013C128.779 98.9948 128.756 98.9753 128.756 98.9753C129.92 99.782 131.084 100.589 132.624 101.657C130.388 103.589 132.559 109.608 126.075 107.158C125.528 106.518 125.28 106.079 124.836 105.083C124.004 104.346 123.37 104.165 122.736 103.985C122.736 103.985 122.789 103.971 122.603 103.696C120.528 103.309 118.64 103.197 116.751 103.084Z" fill="#7ED3E0"/>
<path d="M319.774 187.992C319.128 189.168 318.5 190.35 317.872 191.531C316.869 190.66 315.511 189.978 314.926 188.883C312.685 184.69 310.626 180.393 308.662 176.062C308.273 175.201 308.274 173.301 308.668 173.119C309.631 172.673 310.929 172.953 312.449 172.973C312.807 173.006 312.791 172.967 312.685 173.3C312.981 174.1 313.384 174.567 313.787 175.035C313.787 175.035 313.799 174.983 313.675 175.318C313.961 176.448 314.37 177.242 314.779 178.037C314.779 178.037 314.793 177.986 314.757 178.296C315.074 179.083 315.426 179.559 315.779 180.036C315.779 180.036 315.788 179.987 315.809 180.275C316.151 180.72 316.472 180.876 316.794 181.032C316.794 181.032 316.802 180.979 316.659 181.318C316.936 182.45 317.356 183.243 317.776 184.035C317.776 184.035 317.79 183.988 317.726 184.309C318.034 185.098 318.406 185.566 318.778 186.034C318.778 186.034 318.791 185.987 318.706 186.311C319.008 187.102 319.395 187.568 319.782 188.034C319.782 188.034 319.792 187.997 319.774 187.992Z" fill="#6FCAD9"/>
<path d="M332.459 160.947C333.347 160.533 334.235 160.12 335.598 160C336.636 160.87 337.201 161.447 337.765 162.024C337.765 162.024 337.778 161.994 337.803 162.281C338.145 162.72 338.461 162.873 338.777 163.026C338.777 163.026 338.786 162.99 338.676 163.328C338.969 164.454 339.372 165.241 339.775 166.029C339.775 166.029 339.784 165.99 339.821 166.266C340.167 166.703 340.476 166.865 340.785 167.027C340.785 167.027 340.791 166.985 340.717 167.31C341.02 168.098 341.398 168.563 341.776 169.027C341.776 169.027 341.787 168.989 341.705 169.313C342.006 170.1 342.39 170.563 342.773 171.026C342.773 171.026 342.786 170.991 342.68 171.33C342.972 172.455 343.369 173.24 343.766 174.025C343.766 174.025 343.779 173.993 343.734 174.275C343.923 175.046 344.156 175.533 344.39 176.021C343.429 177.047 342.468 178.073 341.088 178.69C337.932 172.502 335.195 166.725 332.459 160.947Z" fill="#6FCAD9"/>
<path d="M129.757 93.9862C130.091 94.2911 130.469 94.5796 130.785 94.9247C131.66 95.8809 132.509 96.8608 133.369 97.8313C132.094 98.1809 130.819 98.5305 129.15 98.9277C128.756 98.9752 128.779 98.9947 128.575 98.7043C127.165 98.2706 125.957 98.1273 124.75 97.9841C124.75 97.9841 124.775 97.9965 124.6 97.6752C123.199 97.2311 121.973 97.1084 120.747 96.9856C120.747 96.9856 120.774 96.9979 120.7 96.6849C120 96.2411 119.374 96.1104 118.749 95.9796C118.749 95.9796 118.775 95.9977 118.787 96.0081C118.175 93.7421 117.537 91.4595 121.444 91.0878C121.79 91.0099 121.773 90.9964 121.917 91.3138C122.974 91.7569 123.886 91.8827 124.799 92.0086C124.799 92.0086 124.775 91.9965 124.913 92.3164C125.968 92.761 126.887 92.8856 127.805 93.0102C127.805 93.0102 127.776 92.9953 127.866 93.2953C128.572 93.7358 129.188 93.8762 129.805 94.0166C129.805 94.0166 129.774 93.9956 129.757 93.9862Z" fill="#7ED3E0"/>
<path d="M125.775 106.958C124.694 108.458 123.238 109.816 122.603 111.486C120.779 116.28 119.286 121.2 117.629 126.174C124.941 126.942 129.332 124.263 131.567 117.366C134.847 107.24 137.734 96.9884 140.917 86.8301C141.882 83.748 142.423 80.1283 146.897 79.8871C151.373 79.6458 154.459 82.7777 153.312 87.0836C150.272 98.4917 147.324 109.945 143.676 121.165C139.729 133.3 128.746 140.19 117.211 138.636C101.776 136.557 93.1311 128.217 92.1286 114.216C91.9776 112.107 92.3205 109.865 92.9031 107.818C96.0908 96.6185 99.3524 85.4384 102.742 74.2981C104.206 69.4859 107.278 67.7079 111.373 69.2248C115.564 70.778 115.803 74.0152 114.65 77.8402C111.434 88.5016 108.182 99.1564 105.255 109.898C103.419 116.632 105.875 121.616 112.394 124.532C114.518 118.441 116.66 112.409 118.653 106.328C118.786 105.923 117.784 105.146 117.035 104.063C116.757 103.418 116.754 103.251 117.136 103.08C119.283 103.392 121.045 103.708 122.798 103.997C122.789 103.971 122.736 103.985 122.868 104.276C123.606 104.772 124.213 104.977 124.926 105.41C125.28 106.079 125.527 106.518 125.775 106.958Z" fill="#70C9D7"/>
<path d="M133.441 85.4328C134.525 85.9792 135.608 86.5256 136.555 87.0031C135.594 89.3492 134.771 91.3564 133.755 93.8353C133.068 93.8353 131.806 93.8353 130.159 93.9154C129.774 93.9956 129.805 94.0166 129.702 93.7056C128.982 93.2559 128.365 93.1172 127.762 92.9869C127.776 92.9953 127.805 93.0102 127.635 92.7003C126.56 92.2551 125.656 92.1198 124.764 91.9905C124.775 91.9965 124.799 92.0085 124.652 91.6754C123.588 91.2239 122.671 91.1054 121.764 90.9917C121.773 90.9965 121.791 91.0099 121.791 91.0099C121.099 90.044 120.408 89.078 118.95 87.0402C121.975 87.5746 123.874 87.91 126.41 88.4763C127.905 88.8635 128.762 89.02 129.839 89.4096C130.737 89.6429 131.417 89.6429 132.097 89.6429C132.1 89.4626 132.102 89.2823 132.105 89.1021C131.37 89.0138 130.636 88.9255 129.686 88.5966C128.64 88.1578 127.809 87.9596 126.978 87.7614C125.243 86.4719 123.508 85.1824 121.772 83.8929C122.024 83.5378 122.276 83.1828 122.529 82.8278C123.813 83.1602 125.097 83.4925 126.381 83.8249C126.847 83.6408 127.312 83.4567 127.778 83.2726C122.941 80.2119 122.038 76.5216 124.705 72.221C128.977 73.1895 133.305 74.025 137.523 75.2431C138.432 75.5057 138.943 77.1481 139.637 78.155C138.337 78.7063 137.037 79.2575 135.108 79.5763C133.643 79.1491 132.808 78.9544 131.742 78.5428C130.697 78.1071 129.884 77.8883 128.869 77.4669C128.138 77.0584 127.61 76.8526 126.86 76.4467C126.197 76.2237 125.755 76.2007 125.313 76.1776C125.706 76.5602 126.1 76.9428 126.698 77.5291C127.446 77.915 127.988 78.0974 128.768 78.5021C129.829 78.9391 130.655 79.1539 131.742 79.5733C132.864 79.9265 133.724 80.0751 134.585 80.2237C135.744 80.7098 136.904 81.1959 139.621 82.3344C137.32 83.5076 136.007 84.1769 134.09 84.5954C132.672 84.1212 131.859 83.8978 130.785 83.4734C129.792 83.2724 129.059 83.2724 128.326 83.2724C128.311 83.4646 128.297 83.6567 128.282 83.8489C129.007 84.0222 129.733 84.1954 130.714 84.5699C131.794 84.9916 132.618 85.2122 133.441 85.4328Z" fill="#7ED3E0"/>
<path d="M116.751 103.084C116.754 103.251 116.757 103.418 116.759 103.835C117.227 101.497 117.696 98.9089 118.47 96.1592C118.775 95.9977 118.749 95.9796 118.854 96.2876C119.572 96.735 120.186 96.8745 120.787 97.0059C120.774 96.998 120.747 96.9857 120.95 97.297C122.369 97.7417 123.585 97.875 124.788 98.0024C124.775 97.9965 124.75 97.9841 124.935 98.3122C126.349 98.7627 127.578 98.8853 128.793 99.0013C128.779 98.9948 128.756 98.9753 128.756 98.9753C129.92 99.782 131.084 100.589 132.624 101.657C130.388 103.589 132.559 109.608 126.075 107.158C125.528 106.518 125.28 106.079 124.836 105.083C124.004 104.346 123.37 104.165 122.736 103.985C122.736 103.985 122.789 103.971 122.603 103.696C120.528 103.309 118.64 103.197 116.751 103.084Z" fill="#7ED3E0"/>
<path d="M129.757 93.9862C130.091 94.2911 130.469 94.5796 130.785 94.9247C131.66 95.8809 132.509 96.8608 133.369 97.8313C132.094 98.1809 130.819 98.5305 129.15 98.9277C128.756 98.9752 128.779 98.9947 128.575 98.7043C127.165 98.2706 125.957 98.1273 124.75 97.9841C124.75 97.9841 124.775 97.9965 124.6 97.6752C123.199 97.2311 121.973 97.1084 120.747 96.9856C120.747 96.9856 120.774 96.9979 120.7 96.6849C120 96.2411 119.374 96.1104 118.749 95.9796C118.749 95.9796 118.775 95.9977 118.787 96.0081C118.175 93.7421 117.537 91.4595 121.444 91.0878C121.79 91.0099 121.773 90.9964 121.917 91.3138C122.974 91.7569 123.886 91.8827 124.799 92.0086C124.799 92.0086 124.775 91.9965 124.913 92.3164C125.968 92.761 126.887 92.8856 127.805 93.0102C127.805 93.0102 127.776 92.9953 127.866 93.2953C128.572 93.7358 129.188 93.8762 129.805 94.0166C129.805 94.0166 129.774 93.9956 129.757 93.9862Z" fill="#7ED3E0"/>
<path d="M125.775 106.958C124.694 108.458 123.238 109.816 122.603 111.486C120.779 116.28 119.286 121.2 117.629 126.174C124.941 126.942 129.332 124.263 131.567 117.366C134.847 107.24 137.734 96.9884 140.917 86.8301C141.882 83.748 142.423 80.1283 146.897 79.8871C151.373 79.6458 154.459 82.7777 153.312 87.0836C150.272 98.4917 147.324 109.945 143.676 121.165C139.729 133.3 128.746 140.19 117.211 138.636C101.776 136.557 93.1311 128.217 92.1286 114.216C91.9776 112.107 92.3205 109.865 92.9031 107.818C96.0908 96.6185 99.3524 85.4384 102.742 74.2981C104.206 69.4859 107.278 67.7079 111.373 69.2248C115.564 70.778 115.803 74.0152 114.65 77.8402C111.434 88.5016 108.182 99.1564 105.255 109.898C103.419 116.632 105.875 121.616 112.394 124.532C114.518 118.441 116.66 112.409 118.653 106.328C118.786 105.923 117.784 105.146 117.035 104.063C116.757 103.418 116.754 103.251 117.136 103.08C119.283 103.392 121.045 103.708 122.798 103.997C122.789 103.971 122.736 103.985 122.868 104.276C123.606 104.772 124.213 104.977 124.926 105.41C125.28 106.079 125.527 106.518 125.775 106.958Z" fill="#70C9D7"/>
<path d="M133.441 85.4328C134.525 85.9792 135.608 86.5256 136.555 87.0031C135.594 89.3492 134.771 91.3564 133.755 93.8353C133.068 93.8353 131.806 93.8353 130.159 93.9154C129.774 93.9956 129.805 94.0166 129.702 93.7056C128.982 93.2559 128.365 93.1172 127.762 92.9869C127.776 92.9953 127.805 93.0102 127.635 92.7003C126.56 92.2551 125.656 92.1198 124.764 91.9905C124.775 91.9965 124.799 92.0085 124.652 91.6754C123.588 91.2239 122.671 91.1054 121.764 90.9917C121.773 90.9965 121.791 91.0099 121.791 91.0099C121.099 90.044 120.408 89.078 118.95 87.0402C121.975 87.5746 123.874 87.91 126.41 88.4763C127.905 88.8635 128.762 89.02 129.839 89.4096C130.737 89.6429 131.417 89.6429 132.097 89.6429C132.1 89.4626 132.102 89.2823 132.105 89.1021C131.37 89.0138 130.636 88.9255 129.686 88.5966C128.64 88.1578 127.809 87.9596 126.978 87.7614C125.243 86.4719 123.508 85.1824 121.772 83.8929C122.024 83.5378 122.276 83.1828 122.529 82.8278C123.813 83.1602 125.097 83.4925 126.381 83.8249C126.847 83.6408 127.312 83.4567 127.778 83.2726C122.941 80.2119 122.038 76.5216 124.705 72.221C128.977 73.1895 133.305 74.025 137.523 75.2431C138.432 75.5057 138.943 77.1481 139.637 78.155C138.337 78.7063 137.037 79.2575 135.108 79.5763C133.643 79.1491 132.808 78.9544 131.742 78.5428C130.697 78.1071 129.884 77.8883 128.869 77.4669C128.138 77.0584 127.61 76.8526 126.86 76.4467C126.197 76.2237 125.755 76.2007 125.313 76.1776C125.706 76.5602 126.1 76.9428 126.698 77.5291C127.446 77.915 127.988 78.0974 128.768 78.5021C129.829 78.9391 130.655 79.1539 131.742 79.5733C132.864 79.9265 133.724 80.0751 134.585 80.2237C135.744 80.7098 136.904 81.1959 139.621 82.3344C137.32 83.5076 136.007 84.1769 134.09 84.5954C132.672 84.1212 131.859 83.8978 130.785 83.4734C129.792 83.2724 129.059 83.2724 128.326 83.2724C128.311 83.4646 128.297 83.6567 128.282 83.8489C129.007 84.0222 129.733 84.1954 130.714 84.5699C131.794 84.9916 132.618 85.2122 133.441 85.4328Z" fill="#7ED3E0"/>
<path d="M116.751 103.084C116.754 103.251 116.757 103.418 116.759 103.835C117.227 101.497 117.696 98.9089 118.47 96.1592C118.775 95.9977 118.749 95.9796 118.854 96.2876C119.572 96.735 120.186 96.8745 120.787 97.0059C120.774 96.998 120.747 96.9857 120.95 97.297C122.369 97.7417 123.585 97.875 124.788 98.0024C124.775 97.9965 124.75 97.9841 124.935 98.3122C126.349 98.7627 127.578 98.8853 128.793 99.0013C128.779 98.9948 128.756 98.9753 128.756 98.9753C129.92 99.782 131.084 100.589 132.624 101.657C130.388 103.589 132.559 109.608 126.075 107.158C125.528 106.518 125.28 106.079 124.836 105.083C124.004 104.346 123.37 104.165 122.736 103.985C122.736 103.985 122.789 103.971 122.603 103.696C120.528 103.309 118.64 103.197 116.751 103.084Z" fill="#7ED3E0"/>
<path d="M129.757 93.9862C130.091 94.2911 130.469 94.5796 130.785 94.9247C131.66 95.8809 132.509 96.8608 133.369 97.8313C132.094 98.1809 130.819 98.5305 129.15 98.9277C128.756 98.9752 128.779 98.9947 128.575 98.7043C127.165 98.2706 125.957 98.1273 124.75 97.9841C124.75 97.9841 124.775 97.9965 124.6 97.6752C123.199 97.2311 121.973 97.1084 120.747 96.9856C120.747 96.9856 120.774 96.9979 120.7 96.6849C120 96.2411 119.374 96.1104 118.749 95.9796C118.749 95.9796 118.775 95.9977 118.787 96.0081C118.175 93.7421 117.537 91.4595 121.444 91.0878C121.79 91.0099 121.773 90.9964 121.917 91.3138C122.974 91.7569 123.886 91.8827 124.799 92.0086C124.799 92.0086 124.775 91.9965 124.913 92.3164C125.968 92.761 126.887 92.8856 127.805 93.0102C127.805 93.0102 127.776 92.9953 127.866 93.2953C128.572 93.7358 129.188 93.8762 129.805 94.0166C129.805 94.0166 129.774 93.9956 129.757 93.9862Z" fill="#7ED3E0"/>
<path d="M125.775 106.958C124.694 108.458 123.238 109.816 122.603 111.486C120.779 116.28 119.286 121.2 117.629 126.174C124.941 126.942 129.332 124.263 131.567 117.366C134.847 107.24 137.734 96.9884 140.917 86.8301C141.882 83.748 142.423 80.1283 146.897 79.8871C151.373 79.6458 154.459 82.7777 153.312 87.0836C150.272 98.4917 147.324 109.945 143.676 121.165C139.729 133.3 128.746 140.19 117.211 138.636C101.776 136.557 93.1311 128.217 92.1286 114.216C91.9776 112.107 92.3205 109.865 92.9031 107.818C96.0908 96.6185 99.3524 85.4384 102.742 74.2981C104.206 69.4859 107.278 67.7079 111.373 69.2248C115.564 70.778 115.803 74.0152 114.65 77.8402C111.434 88.5016 108.182 99.1564 105.255 109.898C103.419 116.632 105.875 121.616 112.394 124.532C114.518 118.441 116.66 112.409 118.653 106.328C118.786 105.923 117.784 105.146 117.035 104.063C116.757 103.418 116.754 103.251 117.136 103.08C119.283 103.392 121.045 103.708 122.798 103.997C122.789 103.971 122.736 103.985 122.868 104.276C123.606 104.772 124.213 104.977 124.926 105.41C125.28 106.079 125.527 106.518 125.775 106.958Z" fill="#70C9D7"/>
<path d="M133.441 85.4328C134.525 85.9792 135.608 86.5256 136.555 87.0031C135.594 89.3492 134.771 91.3564 133.755 93.8353C133.068 93.8353 131.806 93.8353 130.159 93.9154C129.774 93.9956 129.805 94.0166 129.702 93.7056C128.982 93.2559 128.365 93.1172 127.762 92.9869C127.776 92.9953 127.805 93.0102 127.635 92.7003C126.56 92.2551 125.656 92.1198 124.764 91.9905C124.775 91.9965 124.799 92.0085 124.652 91.6754C123.588 91.2239 122.671 91.1054 121.764 90.9917C121.773 90.9965 121.791 91.0099 121.791 91.0099C121.099 90.044 120.408 89.078 118.95 87.0402C121.975 87.5746 123.874 87.91 126.41 88.4763C127.905 88.8635 128.762 89.02 129.839 89.4096C130.737 89.6429 131.417 89.6429 132.097 89.6429C132.1 89.4626 132.102 89.2823 132.105 89.1021C131.37 89.0138 130.636 88.9255 129.686 88.5966C128.64 88.1578 127.809 87.9596 126.978 87.7614C125.243 86.4719 123.508 85.1824 121.772 83.8929C122.024 83.5378 122.276 83.1828 122.529 82.8278C123.813 83.1602 125.097 83.4925 126.381 83.8249C126.847 83.6408 127.312 83.4567 127.778 83.2726C122.941 80.2119 122.038 76.5216 124.705 72.221C128.977 73.1895 133.305 74.025 137.523 75.2431C138.432 75.5057 138.943 77.1481 139.637 78.155C138.337 78.7063 137.037 79.2575 135.108 79.5763C133.643 79.1491 132.808 78.9544 131.742 78.5428C130.697 78.1071 129.884 77.8883 128.869 77.4669C128.138 77.0584 127.61 76.8526 126.86 76.4467C126.197 76.2237 125.755 76.2007 125.313 76.1776C125.706 76.5602 126.1 76.9428 126.698 77.5291C127.446 77.915 127.988 78.0974 128.768 78.5021C129.829 78.9391 130.655 79.1539 131.742 79.5733C132.864 79.9265 133.724 80.0751 134.585 80.2237C135.744 80.7098 136.904 81.1959 139.621 82.3344C137.32 83.5076 136.007 84.1769 134.09 84.5954C132.672 84.1212 131.859 83.8978 130.785 83.4734C129.792 83.2724 129.059 83.2724 128.326 83.2724C128.311 83.4646 128.297 83.6567 128.282 83.8489C129.007 84.0222 129.733 84.1954 130.714 84.5699C131.794 84.9916 132.618 85.2122 133.441 85.4328Z" fill="#7ED3E0"/>
<path d="M116.751 103.084C116.754 103.251 116.757 103.418 116.759 103.835C117.227 101.497 117.696 98.9089 118.47 96.1592C118.775 95.9977 118.749 95.9796 118.854 96.2876C119.572 96.735 120.186 96.8745 120.787 97.0059C120.774 96.998 120.747 96.9857 120.95 97.297C122.369 97.7417 123.585 97.875 124.788 98.0024C124.775 97.9965 124.75 97.9841 124.935 98.3122C126.349 98.7627 127.578 98.8853 128.793 99.0013C128.779 98.9948 128.756 98.9753 128.756 98.9753C129.92 99.782 131.084 100.589 132.624 101.657C130.388 103.589 132.559 109.608 126.075 107.158C125.528 106.518 125.28 106.079 124.836 105.083C124.004 104.346 123.37 104.165 122.736 103.985C122.736 103.985 122.789 103.971 122.603 103.696C120.528 103.309 118.64 103.197 116.751 103.084Z" fill="#7ED3E0"/>
<path d="M129.757 93.9862C130.091 94.2911 130.469 94.5796 130.785 94.9247C131.66 95.8809 132.509 96.8608 133.369 97.8313C132.094 98.1809 130.819 98.5305 129.15 98.9277C128.756 98.9752 128.779 98.9947 128.575 98.7043C127.165 98.2706 125.957 98.1273 124.75 97.9841C124.75 97.9841 124.775 97.9965 124.6 97.6752C123.199 97.2311 121.973 97.1084 120.747 96.9856C120.747 96.9856 120.774 96.9979 120.7 96.6849C120 96.2411 119.374 96.1104 118.749 95.9796C118.749 95.9796 118.775 95.9977 118.787 96.0081C118.175 93.7421 117.537 91.4595 121.444 91.0878C121.79 91.0099 121.773 90.9964 121.917 91.3138C122.974 91.7569 123.886 91.8827 124.799 92.0086C124.799 92.0086 124.775 91.9965 124.913 92.3164C125.968 92.761 126.887 92.8856 127.805 93.0102C127.805 93.0102 127.776 92.9953 127.866 93.2953C128.572 93.7358 129.188 93.8762 129.805 94.0166C129.805 94.0166 129.774 93.9956 129.757 93.9862Z" fill="#7ED3E0"/>
<path d="M299.332 32.813C299.158 36.499 297.581 38.761 292.991 37.0766C294.768 35.5798 296.877 34.2332 299.332 32.813Z" fill="#73C9D8"/>
<path d="M391.745 15.9768L391.632 16.2152C391.632 16.2152 391.682 16.1323 391.728 16.0654C391.774 15.9985 391.745 15.9768 391.745 15.9768Z" fill="#70C9D7"/>
<path d="M83.7696 43.9878C83.6495 43.985 83.541 43.9959 83.6199 44.0167C83.8073 44.0266 83.7811 44.0015 83.7696 43.9878Z" fill="#6EC8D7"/>
<path d="M392.778 14.9991C392.599 15.2795 392.418 15.557 391.991 15.9056C391.745 15.9768 391.774 15.9985 391.785 16.0128C391.948 15.7181 392.099 15.409 392.508 15.0446C392.767 14.9891 392.775 14.9962 392.778 14.9991Z" fill="#70C9D7"/>
<path d="M144.756 61.9748C144.653 62.0118 144.565 62.0638 144.639 62.0659C144.802 62.016 144.77 61.9898 144.756 61.9748Z" fill="#6EC8D7"/>
<path d="M419.345 115.654C419.276 115.718 419.25 115.492 419.25 115.492C419.25 115.492 419.413 115.589 419.345 115.654Z" fill="#70C9D9"/>
<path d="M231.767 80.0036C231.925 80.1609 232.089 80.3124 232.254 80.4638C232.132 80.4229 232.01 80.3819 231.836 80.1635C231.783 79.9862 231.774 79.9978 231.767 80.0036Z" fill="#6EC8D7"/>
<path d="M76.7163 81.9334C76.8373 81.8919 76.9921 81.8852 76.984 81.9565C76.821 82.0345 76.7501 81.9682 76.7163 81.9334Z" fill="#FCFDFD"/>
<path d="M390.765 75.0011C390.612 74.8369 390.505 74.6299 390.398 74.4229C390.531 74.4573 390.664 74.4918 390.847 74.6975C390.898 74.8688 390.81 74.9582 390.765 75.0011Z" fill="#FCFDFD"/>
</svg>
